<?xml version="1.0" encoding="utf-8"?>
<!-- Generator: Adobe Illustrator 16.0.0, SVG Export Plug-In . SVG Version: 6.00 Build 0)  -->
<!DOCTYPE svg PUBLIC "-//W3C//DTD SVG 1.1//EN" "http://www.w3.org/Graphics/SVG/1.1/DTD/svg11.dtd">
<svg version="1.1" xmlns="http://www.w3.org/2000/svg" xmlns:xlink="http://www.w3.org/1999/xlink" x="0px" y="0px" width="826px"
	 height="197px" viewBox="0 0 826 197" enable-background="new 0 0 826 197" xml:space="preserve">
<g id="Disuse" class="fadeInSeventh">
	<linearGradient id="SVGID_1_" gradientUnits="userSpaceOnUse" x1="619" y1="90" x2="747.2051" y2="90">
		<stop  offset="0" style="stop-color:#FFFFFF"/>
		<stop  offset="1" style="stop-color:#000000"/>
	</linearGradient>
	<line fill="none" stroke="url(#SVGID_1_)" stroke-width="4" stroke-miterlimit="10" x1="619" y1="90" x2="747.205" y2="90"/>
	<g>
		<text transform="matrix(1 0 0 1 743.0088 81)"><tspan x="0" y="0" fill="#436789" font-family="'MyriadPro-Regular'" font-size="12">developer’s</tspan><tspan x="13.14" y="14.4" fill="#436789" font-family="'MyriadPro-Regular'" font-size="12">disuse</tspan></text>
	</g>
</g>
<g id="Use" class="fadeInSixth">
	<path fill="none" stroke="#D5CA3B" stroke-width="4" stroke-miterlimit="10" d="M417.111,126.319c0,0,137.291,9.197,137.291-52.599
		"/>
	<path fill="none" stroke="#DC7689" stroke-width="3" stroke-miterlimit="10" d="M394.593,44.407c0,0,124.81-3.775,159.81,14.871"/>
	<path fill="#CDCCCC" stroke="#010101" stroke-miterlimit="10" d="M542.926,44.041c0,0-6.257-4.313-6.257-8.581
		c0-4.673,3.789-8.46,8.46-8.46c4.67,0,8.459,3.787,8.459,8.46c0,4.161-5.916,8.615-5.916,8.615s11.455,6.717,11.455,13.909v8.399
		l-13.998-0.118l-14.001-0.119v-8.163C531.129,50.675,542.926,44.041,542.926,44.041z"/>
	<path fill="#CDCCCC" stroke="#010101" stroke-miterlimit="10" d="M576.926,44.041c0,0-6.257-4.313-6.257-8.581
		c0-4.673,3.789-8.46,8.46-8.46c4.67,0,8.459,3.787,8.459,8.46c0,4.161-5.916,8.615-5.916,8.615s11.455,6.717,11.455,13.909v8.399
		l-13.998-0.118l-14.001-0.119v-8.163C565.129,50.675,576.926,44.041,576.926,44.041z"/>
	<path fill="#CDCCCC" stroke="#010101" stroke-miterlimit="10" d="M562.44,49.045c0,0-4.793-3.304-4.793-6.574
		c0-3.58,2.903-6.481,6.481-6.481c3.577,0,6.479,2.901,6.479,6.481c0,3.188-4.531,6.6-4.531,6.6s8.775,5.146,8.775,10.655v6.435
		l-10.724-0.09l-10.726-0.091v-6.253C553.403,54.127,562.44,49.045,562.44,49.045z"/>
	<path fill="#A9A8A8" stroke="#010101" stroke-miterlimit="10" d="M528.02,59.618c0,0-7.362-5.083-7.358-10.108
		c0.005-5.501,4.47-9.955,9.968-9.951c5.497,0.005,9.955,4.466,9.95,9.966c-0.004,4.899-6.973,10.137-6.973,10.137
		s13.479,7.917,13.472,16.384l-0.007,9.888l-16.479-0.152l-16.482-0.153l0.008-9.609C514.125,67.416,528.02,59.618,528.02,59.618z"
		/>
	<path fill="#A9A8A8" stroke="#010101" stroke-miterlimit="10" d="M568.044,59.649c0,0-7.361-5.083-7.357-10.108
		c0.005-5.501,4.469-9.956,9.967-9.952s9.954,4.466,9.95,9.967c-0.004,4.898-6.972,10.136-6.972,10.136s13.479,7.917,13.472,16.384
		l-0.008,9.888l-16.479-0.152l-16.481-0.153l0.008-9.608C554.151,67.448,568.044,59.649,568.044,59.649z"/>
	<path fill="#A9A8A8" stroke="#010101" stroke-miterlimit="10" d="M550.987,65.527c0,0-5.64-3.894-5.636-7.743
		c0.003-4.214,3.424-7.627,7.636-7.624c4.211,0.004,7.625,3.422,7.621,7.636c-0.003,3.752-5.34,7.765-5.34,7.765
		s10.325,6.065,10.32,12.551l-0.006,7.575l-12.624-0.116l-12.626-0.118l0.006-7.361C540.345,71.5,550.987,65.527,550.987,65.527z"/>
	<path fill="#A9A8A8" stroke="#010101" stroke-miterlimit="10" d="M560.979,61.438c0,0-7.362-5.083-7.358-10.107
		c0.005-5.501,4.469-9.956,9.968-9.952c5.497,0.005,9.954,4.466,9.95,9.967c-0.004,4.898-6.973,10.136-6.973,10.136
		s13.479,7.917,13.472,16.385l-0.008,9.887l-16.478-0.151l-16.483-0.153l0.009-9.609C547.086,69.237,560.979,61.438,560.979,61.438z
		"/>
	<path fill="#A9A8A8" stroke="#010101" stroke-miterlimit="10" d="M601.004,61.47c0,0-7.361-5.083-7.357-10.108
		c0.004-5.501,4.469-9.956,9.967-9.951s9.955,4.466,9.95,9.967c-0.004,4.898-6.973,10.136-6.973,10.136s13.479,7.917,13.473,16.385
		l-0.009,9.887l-16.479-0.151l-16.481-0.154l0.008-9.608C587.11,69.268,601.004,61.47,601.004,61.47z"/>
	<path fill="#A9A8A8" stroke="#010101" stroke-miterlimit="10" d="M583.947,67.347c0,0-5.64-3.893-5.637-7.743
		c0.004-4.214,3.425-7.626,7.636-7.624c4.211,0.004,7.626,3.422,7.622,7.636c-0.003,3.752-5.34,7.765-5.34,7.765
		s10.325,6.065,10.319,12.551l-0.005,7.575l-12.624-0.116l-12.626-0.118l0.005-7.36C573.304,73.321,583.947,67.347,583.947,67.347z"
		/>
	<path fill="#CDCCCC" stroke="#010101" stroke-miterlimit="10" d="M520.056,75.181c0,0-7.754-5.345-7.754-10.634
		c0-5.792,4.695-10.485,10.484-10.485c5.787,0,10.482,4.693,10.482,10.485c0,5.157-7.331,10.676-7.331,10.676
		s14.196,8.324,14.196,17.237v10.409l-17.348-0.145l-17.352-0.147V92.46C505.436,83.403,520.056,75.181,520.056,75.181z"/>
	<path fill="#CDCCCC" stroke="#010101" stroke-miterlimit="10" d="M562.191,75.181c0,0-7.754-5.345-7.754-10.634
		c0-5.792,4.695-10.485,10.484-10.485c5.787,0,10.483,4.693,10.483,10.485c0,5.157-7.332,10.676-7.332,10.676
		s14.196,8.324,14.196,17.237v10.409l-17.348-0.145l-17.352-0.147V92.46C547.572,83.403,562.191,75.181,562.191,75.181z"/>
	<path fill="#CDCCCC" stroke="#010101" stroke-miterlimit="10" d="M544.24,81.383c0,0-5.94-4.095-5.94-8.147
		c0-4.436,3.599-8.032,8.032-8.032s8.03,3.596,8.03,8.032c0,3.95-5.615,8.178-5.615,8.178s10.875,6.378,10.875,13.206v7.973
		l-13.29-0.111l-13.292-0.114v-7.748C533.04,87.681,544.24,81.383,544.24,81.383z"/>
	<path fill="#CDCCCC" stroke="#010101" stroke-miterlimit="10" d="M565.786,77.362c0,0-7.754-5.345-7.754-10.634
		c0-5.792,4.695-10.485,10.484-10.485c5.787,0,10.482,4.693,10.482,10.485c0,5.157-7.331,10.676-7.331,10.676
		s14.196,8.324,14.196,17.237v10.409l-17.348-0.145l-17.352-0.147V94.641C551.166,85.583,565.786,77.362,565.786,77.362z"/>
	<path fill="#CDCCCC" stroke="#010101" stroke-miterlimit="10" d="M607.922,77.362c0,0-7.754-5.345-7.754-10.634
		c0-5.792,4.695-10.485,10.484-10.485c5.787,0,10.483,4.693,10.483,10.485c0,5.157-7.332,10.676-7.332,10.676S628,85.728,628,94.641
		v10.409l-17.348-0.145l-17.352-0.147V94.641C593.303,85.583,607.922,77.362,607.922,77.362z"/>
	<path fill="#CDCCCC" stroke="#010101" stroke-miterlimit="10" d="M589.971,83.564c0,0-5.94-4.095-5.94-8.147
		c0-4.436,3.599-8.032,8.032-8.032s8.03,3.596,8.03,8.032c0,3.95-5.615,8.178-5.615,8.178s10.875,6.378,10.875,13.206v7.973
		l-13.29-0.111l-13.292-0.114v-7.748C578.771,89.862,589.971,83.564,589.971,83.564z"/>
</g>
<g id="Acquisition" class="fadeInFifth">
	<path fill="none" stroke="#DC7689" stroke-width="3" stroke-miterlimit="10" d="M205,72c0,0,99-36,180-27"/>
	<path fill="none" stroke="#D5CA3B" stroke-width="4" stroke-miterlimit="10" d="M223,99c0,0,180,0,189,18"/>
	<g>
		<path fill="#FFFFFF" stroke="#DC7689" stroke-miterlimit="10" d="M387.125,35.371c0,0-3.074-2.119-3.074-4.216
			c0-2.294,1.861-4.155,4.156-4.155c2.294,0,4.155,1.861,4.155,4.155c0,2.045-2.907,4.232-2.907,4.232s5.63,3.3,5.63,6.833v4.127
			l-13.756-0.117v-4.01C381.33,38.629,387.125,35.371,387.125,35.371z"/>
		<path fill="#FFFFFF" stroke="#D5CA3B" stroke-width="4" stroke-miterlimit="10" d="M407.693,95.377c0,0-8.614-5.937-8.614-11.814
			c0-6.434,5.217-11.648,11.647-11.648s11.647,5.214,11.647,11.648c0,5.729-8.146,11.861-8.146,11.861S430,104.672,430,114.573
			v11.565l-19.273-0.163l-19.276-0.163v-11.239C391.452,104.511,407.693,95.377,407.693,95.377z"/>
	</g>
	<g>
		<text transform="matrix(1 0 0 1 376 63)" fill="#436789" font-family="'MyriadPro-Regular'" font-size="12">acquisition</text>
	</g>
	<g>
		<text transform="matrix(1 0 0 1 548.7402 126)"><tspan x="0" y="0" fill="#436789" font-family="'MyriadPro-Regular'" font-size="12">end user’s</tspan><tspan x="-7.104" y="14.4" fill="#436789" font-family="'MyriadPro-Regular'" font-size="12">use to disuse</tspan></text>
	</g>
</g>
<g id="Airflow" class="fadeInThird">
	<text transform="matrix(1 0 0 1 277 171)"><tspan x="0" y="0" fill="#436789" font-family="'MyriadPro-Regular'" font-size="36">AIRflow </tspan><tspan x="122.723" y="0" fill="#334C60" font-family="'MyriadPro-Regular'" font-size="21">API lifecycle v 0.1</tspan><tspan x="271.818" y="0" fill="#436789" font-family="'MyriadPro-Regular'" font-size="36"> </tspan></text>
</g>
<g id="BetterRoutes" class="fadeInSecond">
	<line fill="none" stroke="#D5CA3B" stroke-width="4" stroke-miterlimit="10" x1="143.495" y1="99" x2="203.79" y2="99"/>
	<path fill="none" stroke="#436789" stroke-width="5" stroke-miterlimit="10" d="M63.584,108c53.139,0.662,127.86-0.859,150.416,27"
		/>
	<path fill="none" stroke="#DC7689" stroke-width="3" stroke-miterlimit="10" d="M106,90c41.905-0.932,81.331-4.456,92.129-14.647"
		/>
	<ellipse fill="none" stroke="#DC7689" stroke-width="3" stroke-miterlimit="10" cx="200.66" cy="73.44" rx="13.32" ry="4.44"/>
	<g>
		
			<ellipse fill="#FFFFFF" stroke="#436789" stroke-width="5" stroke-miterlimit="10" cx="224.995" cy="149.85" rx="43.005" ry="21.15"/>
		<ellipse fill="#436789" cx="224.995" cy="149.85" rx="33.945" ry="13.42"/>
	</g>
	<g>
		
			<ellipse fill="#FFFFFF" stroke="#D5CA3B" stroke-width="4" stroke-miterlimit="10" cx="222.805" cy="97.455" rx="27.195" ry="10.545"/>
		<ellipse fill="#D5CA3B" cx="222.805" cy="97.455" rx="22.2" ry="8.608"/>
	</g>
	<ellipse fill="#DC7689" cx="200.66" cy="73.44" rx="11.194" ry="3.731"/>
</g>
<g id="PollutedRoutes" class="fadeInFirst">
	<linearGradient id="SVGID_2_" gradientUnits="userSpaceOnUse" x1="17" y1="99" x2="145.2051" y2="99">
		<stop  offset="0" style="stop-color:#FFFFFF"/>
		<stop  offset="1" style="stop-color:#000000"/>
	</linearGradient>
	<line fill="none" stroke="url(#SVGID_2_)" stroke-width="4" stroke-miterlimit="10" x1="17" y1="99" x2="145.205" y2="99"/>
	<linearGradient id="SVGID_3_" gradientUnits="userSpaceOnUse" x1="16.8687" y1="108.3936" x2="65.3252" y2="108.3936">
		<stop  offset="0" style="stop-color:#FFFFFF"/>
		<stop  offset="1" style="stop-color:#000000"/>
	</linearGradient>
	<path fill="none" stroke="url(#SVGID_3_)" stroke-width="5" stroke-miterlimit="10" d="M17,108.79c0,0,20.295-1.068,48.294-0.719"
		/>
	<linearGradient id="SVGID_4_" gradientUnits="userSpaceOnUse" x1="16.9673" y1="90.2188" x2="106.0332" y2="90.2188">
		<stop  offset="0" style="stop-color:#FFFFFF"/>
		<stop  offset="1" style="stop-color:#000000"/>
	</linearGradient>
	<path fill="none" stroke="url(#SVGID_4_)" stroke-width="3" stroke-miterlimit="10" d="M17,90c0,0,44.79,0.983,89,0"/>
</g>
<style>
.fadeInSeventh{
	animation-name:fadeIn;
	animation-duration:17s;
	animation-iteration-count:1;
	transform-origin: 100% 100%;
}

.fadeInSixth{
	animation-name:fadeIn;
	animation-duration:15s;
	animation-iteration-count:1;
	transform-origin: 100% 100%;
}

.fadeInFifth{
	animation-name:fadeIn;
	animation-duration:13s;
	animation-iteration-count:1;
	transform-origin: 100% 100%;
}

.fadeInFourth{
	animation-name:fadeIn;
	animation-duration:11s;
	animation-iteration-count:1;
	transform-origin: 100% 100%;
}

.fadeInThird{
	animation-name:fadeIn;
	animation-duration:9s;
	animation-iteration-count:1;
	transform-origin: 100% 100%;
}

.fadeInSecond{
	animation-name:fadeIn;
	animation-duration:7s;
	animation-iteration-count:1;
	transform-origin: 100% 100%;
}

.fadeInFirst{
	animation-name:fadeIn;
	animation-duration:5s;
	animation-iteration-count:1;
	transform-origin: 100% 100%;
}

@keyframes fadeIn{
    0%   { opacity: 0; }
    100% { opacity: 1; }
}

</style>
</svg>
