<?xml version="1.0" encoding="utf-8"?>
<!-- Generator: Adobe Illustrator 16.0.0, SVG Export Plug-In . SVG Version: 6.00 Build 0)  -->
<!DOCTYPE svg PUBLIC "-//W3C//DTD SVG 1.1//EN" "http://www.w3.org/Graphics/SVG/1.1/DTD/svg11.dtd">
<svg version="1.1" xmlns="http://www.w3.org/2000/svg" xmlns:xlink="http://www.w3.org/1999/xlink" x="0px" y="0px"
	 width="1729.412px" height="450.592px" viewBox="0 0 1729.412 450.592" enable-background="new 0 0 1729.412 450.592"
	 xml:space="preserve">
<g id="TAM" class="fadeInSecond">
	<g>
		<g>
			<path fill="#CDCCCC" d="M238.921,162.578c0,0-47.66-32.852-47.66-65.364c0-35.598,28.86-64.446,64.443-64.446
				c35.571,0,64.432,28.848,64.432,64.446c0,31.696-45.062,65.622-45.062,65.622s87.259,51.163,87.259,105.947v63.987
				l-106.629-0.895l-106.652-0.906v-62.187C149.057,213.116,238.921,162.578,238.921,162.578z"/>
			<text transform="matrix(1 0 0 1 16.981 256.8228)" fill="#CDCCCC" font-family="'MyriadPro-Regular'" font-size="21.4127">TAM: 4 million</text>
		</g>
		<path fill="#CDCCCC" d="M659.215,162.578c0,0-47.66-32.852-47.66-65.364c0-35.598,28.86-64.446,64.442-64.446
			c35.572,0,64.433,28.848,64.433,64.446c0,31.696-45.062,65.622-45.062,65.622s87.259,51.163,87.259,105.947v63.987l-106.63-0.895
			l-106.652-0.906v-62.187C569.351,213.116,659.215,162.578,659.215,162.578z"/>
		<text transform="matrix(1 0 0 1 412.2749 256.8228)" fill="#CDCCCC" font-family="'MyriadPro-Regular'" font-size="21.4127">TAM: 7.9 million </text>
		<path fill="#CDCCCC" d="M1070.392,162.578c0,0-47.66-32.852-47.66-65.364c0-35.598,28.86-64.446,64.442-64.446
			c35.572,0,64.433,28.848,64.433,64.446c0,31.696-45.062,65.622-45.062,65.622s87.259,51.163,87.259,105.947v63.987l-106.63-0.895
			l-106.652-0.906v-62.187C980.527,213.116,1070.392,162.578,1070.392,162.578z"/>
		<text transform="matrix(1 0 0 1 818.4512 256.8228)" fill="#CDCCCC" font-family="'MyriadPro-Regular'" font-size="21.4127">TAM: 1.5 million</text>
		<path fill="#CDCCCC" d="M1495.51,162.578c0,0-47.66-32.852-47.66-65.364c0-35.598,28.86-64.446,64.442-64.446
			c35.572,0,64.433,28.848,64.433,64.446c0,31.696-45.062,65.622-45.062,65.622s87.259,51.163,87.259,105.947v63.987l-106.63-0.895
			l-106.652-0.906v-62.187C1405.646,213.116,1495.51,162.578,1495.51,162.578z"/>
		<text transform="matrix(1 0 0 1 1242.5703 256.8228)" fill="#CDCCCC" font-family="'MyriadPro-Regular'" font-size="21.4127">TAM: 13.4 million</text>
	</g>
</g>
<g id="SAM" class="fadeInThird">
	<g>
		<path fill="#9B9A9A" d="M242.939,196.618c0,0-38.128-26.281-38.128-52.291c0-28.479,23.088-51.557,51.554-51.557
			c28.456,0,51.545,23.078,51.545,51.557c0,25.356-36.05,52.497-36.05,52.497s69.808,40.93,69.808,84.757v51.188l-85.303-0.715
			l-85.32-0.726v-49.748C171.049,237.049,242.939,196.618,242.939,196.618z"/>
		<text transform="matrix(1 0 0 1 17.645 290.353)" fill="#9B9A9A" font-family="'MyriadPro-Regular'" font-size="21.4127">SAM: 3.2 million</text>
	</g>
	<path fill="#9B9A9A" d="M663.233,196.618c0,0-38.128-26.281-38.128-52.291c0-28.479,23.088-51.557,51.554-51.557
		c28.456,0,51.545,23.078,51.545,51.557c0,25.356-36.05,52.497-36.05,52.497s69.808,40.93,69.808,84.757v51.188l-85.303-0.715
		l-85.32-0.726v-49.748C591.343,237.049,663.233,196.618,663.233,196.618z"/>
	<text transform="matrix(1 0 0 1 412.939 290.353)" fill="#9B9A9A" font-family="'MyriadPro-Regular'" font-size="21.4127">SAM: </text>
	<path fill="#9B9A9A" d="M1074.41,196.618c0,0-38.128-26.281-38.128-52.291c0-28.479,23.088-51.557,51.554-51.557
		c28.456,0,51.545,23.078,51.545,51.557c0,25.356-36.05,52.497-36.05,52.497s69.808,40.93,69.808,84.757v51.188l-85.303-0.715
		l-85.32-0.726v-49.748C1002.52,237.049,1074.41,196.618,1074.41,196.618z"/>
	<text transform="matrix(1 0 0 1 819.1152 290.353)" fill="#9B9A9A" font-family="'MyriadPro-Regular'" font-size="21.4127">SAM: </text>
	<path fill="#9B9A9A" d="M1499.528,196.618c0,0-38.128-26.281-38.128-52.291c0-28.479,23.088-51.557,51.554-51.557
		c28.456,0,51.545,23.078,51.545,51.557c0,25.356-36.05,52.497-36.05,52.497s69.808,40.93,69.808,84.757v51.188l-85.303-0.715
		l-85.32-0.726v-49.748C1427.638,237.049,1499.528,196.618,1499.528,196.618z"/>
	<text transform="matrix(1 0 0 1 1243.2344 290.353)" fill="#9B9A9A" font-family="'MyriadPro-Regular'" font-size="21.4127">SAM: </text>
</g>
<g id="TM" class="fadeInFourth">
	<g>
		<path fill="#436789" d="M246.49,264.092c0,0-18.843-12.987-18.843-25.842c0-14.074,11.41-25.479,25.478-25.479
			c14.063,0,25.474,11.405,25.474,25.479c0,12.531-17.816,25.944-17.816,25.944s34.499,20.228,34.499,41.888v25.297l-42.157-0.354
			l-42.166-0.357v-24.586C210.962,284.073,246.49,264.092,246.49,264.092z"/>
		<text transform="matrix(1 0 0 1 17.645 324.709)" fill="#436789" font-family="'MyriadPro-Regular'" font-size="21.4127">Target: 640,000</text>
	</g>
	<path fill="#D5CA3B" d="M666.784,264.092c0,0-18.843-12.987-18.843-25.842c0-14.074,11.41-25.479,25.478-25.479
		c14.063,0,25.475,11.405,25.475,25.479c0,12.531-17.816,25.944-17.816,25.944s34.499,20.228,34.499,41.888v25.297l-42.157-0.354
		l-42.165-0.357v-24.586C631.256,284.073,666.784,264.092,666.784,264.092z"/>
	<text transform="matrix(1 0 0 1 412.939 324.709)" fill="#D5CA3B" font-family="'MyriadPro-Regular'" font-size="21.4127">Target: </text>
	<path fill="#DC7689" d="M1077.961,264.092c0,0-18.843-12.987-18.843-25.842c0-14.074,11.41-25.479,25.478-25.479
		c14.063,0,25.475,11.405,25.475,25.479c0,12.531-17.816,25.944-17.816,25.944s34.499,20.228,34.499,41.888v25.297l-42.157-0.354
		l-42.165-0.357v-24.586C1042.433,284.073,1077.961,264.092,1077.961,264.092z"/>
	<text transform="matrix(1 0 0 1 819.1152 324.709)" fill="#DC7689" font-family="'MyriadPro-Regular'" font-size="21.4127">Target: </text>
	<path fill="#436789" d="M1503.079,264.092c0,0-18.843-12.987-18.843-25.842c0-14.074,11.41-25.479,25.478-25.479
		c14.063,0,25.475,11.405,25.475,25.479c0,12.531-17.816,25.944-17.816,25.944s34.499,20.228,34.499,41.888v25.297l-42.157-0.354
		l-42.165-0.357v-24.586C1467.551,284.073,1503.079,264.092,1503.079,264.092z"/>
	<text transform="matrix(1 0 0 1 1243.2344 324.709)" fill="#436789" font-family="'MyriadPro-Regular'" font-size="21.4127">Target: </text>
</g>
<g id="Features" class="fadeInFifth">
	<g>
		<text transform="matrix(1 0 0 1 148.2349 423.8027)" fill="#5D5E5E" font-family="'MyriadPro-Regular'" font-size="20.3302">Key Features: Male, 35-60</text>
	</g>
	<text transform="matrix(1 0 0 1 568.5293 423.8027)" fill="#D5CA3B" font-family="'MyriadPro-Regular'" font-size="20.3302">Key Features: </text>
	<text transform="matrix(1 0 0 1 979.7051 423.8027)" fill="#DC7689" font-family="'MyriadPro-Regular'" font-size="20.3302">Key Features: </text>
	<g>
		<text transform="matrix(1 0 0 1 1404.8242 423.8027)" fill="#5D5E5E" font-family="'MyriadPro-Regular'" font-size="20.3302">Key Features: </text>
	</g>
</g>
<g id="Title" class="fadeInFirst">
	<g>
		<g>
			<text transform="matrix(1 0 0 1 148.2349 392.8154)" fill="#436789" font-family="'MyriadPro-Regular'" font-size="67.1489">Asthma</text>
		</g>
		<text transform="matrix(1 0 0 1 593.5293 392.8154)" fill="#D5CA3B" font-family="'MyriadPro-Regular'" font-size="67.1489">COPD</text>
		<text transform="matrix(1 0 0 1 979.7051 392.8154)" fill="#DC7689" font-family="'MyriadPro-Regular'" font-size="67.1489">Cardiac</text>
		<g>
			<text transform="matrix(1 0 0 1 1404.8242 392.8154)" fill="#436789" font-family="'MyriadPro-Regular'" font-size="67.1489">Overall</text>
		</g>
	</g>
</g>
<style>
.fadeInSeventh{
	animation-name:fadeIn;
	animation-duration:17s;
	animation-iteration-count:1;
	transform-origin: 100% 100%;
}

.fadeInSixth{
	animation-name:fadeIn;
	animation-duration:15s;
	animation-iteration-count:1;
	transform-origin: 100% 100%;
}

.fadeInFifth{
	animation-name:fadeIn;
	animation-duration:13s;
	animation-iteration-count:1;
	transform-origin: 100% 100%;
}

.fadeInFourth{
	animation-name:fadeIn;
	animation-duration:11s;
	animation-iteration-count:1;
	transform-origin: 100% 100%;
}

.fadeInThird{
	animation-name:fadeIn;
	animation-duration:9s;
	animation-iteration-count:1;
	transform-origin: 100% 100%;
}

.fadeInSecond{
	animation-name:fadeIn;
	animation-duration:7s;
	animation-iteration-count:1;
	transform-origin: 100% 100%;
}

.fadeInFirst{
	animation-name:fadeIn;
	animation-duration:5s;
	animation-iteration-count:1;
	transform-origin: 100% 100%;
}

@keyframes fadeIn{
    0%   { opacity: 0; }
    100% { opacity: 1; }
}

</style>
</svg>
