<?xml version="1.0" encoding="utf-8"?>
<!-- Generator: Adobe Illustrator 16.0.0, SVG Export Plug-In . SVG Version: 6.00 Build 0)  -->
<!DOCTYPE svg PUBLIC "-//W3C//DTD SVG 1.1//EN" "http://www.w3.org/Graphics/SVG/1.1/DTD/svg11.dtd">
<svg version="1.1" xmlns="http://www.w3.org/2000/svg" xmlns:xlink="http://www.w3.org/1999/xlink" x="0px" y="0px" width="100%"
	 height="100%" viewBox="0 0 200 130.706" enable-background="new 0 0 200 130.706" xml:space="preserve">
<g id="cloud1" class="medium">
	<g>
		<g>
			<path fill="#BEE1EF" d="M35.21,25.784c0.56-1.322,1.172-2.634,1.949-3.868c0.381-0.619,0.782-1.226,1.231-1.8
				c0.419-0.599,0.901-1.146,1.38-1.699c0.961-1.104,2.053-2.09,3.19-3.023c1.166-0.894,2.373-1.754,3.68-2.449l0.978-0.527
				l1.012-0.459c0.668-0.325,1.369-0.569,2.067-0.825c1.399-0.505,2.849-0.858,4.314-1.145c0.738-0.102,1.479-0.207,2.221-0.284
				l1.119-0.064l0.56-0.032l0.14-0.008l0.07-0.004l0.018-0.001L59.232,9.6l0.034,0.001l0.27,0.013
				c1.438,0.074,2.856,0.108,4.345,0.278c1.48,0.107,2.935,0.358,4.394,0.61l2.179,0.502c0.725,0.186,1.438,0.44,2.157,0.659
				c2.842,0.984,5.646,2.487,7.853,4.731c0.582,0.525,1.022,1.182,1.536,1.772c0.491,0.608,0.856,1.3,1.287,1.949
				c0.401,0.665,0.688,1.382,1.034,2.073c0.331,0.697,0.533,1.433,0.804,2.148c0.287,0.715,0.4,1.459,0.606,2.189
				c0.207,0.731,0.327,1.469,0.446,2.208c0.285,1.478,0.355,2.956,0.5,4.433l-2.934,0.385l-0.001-0.004l-0.263-1.345l1.257-0.355
				c0.563-0.159,0.821-0.173,1.196-0.229c0.346-0.044,0.684-0.075,1.021-0.102c0.674-0.051,1.342-0.064,2.01-0.066
				c1.336,0.014,2.671,0.119,3.998,0.336c2.646,0.426,5.304,1.336,7.581,2.971c1.134,0.812,2.158,1.802,2.996,2.928
				c0.848,1.12,1.496,2.379,1.941,3.681c0.465,1.297,0.734,2.644,0.852,3.978c0.08,0.669,0.098,1.334,0.104,1.999l0.008,0.564
				l-0.033,0.473l-0.068,0.944c-0.09,0.66-0.203,1.388-0.357,2.045c-0.189,0.649-0.33,1.313-0.602,1.933l-0.373,0.94l-0.463,0.898
				c-0.283,0.611-0.699,1.147-1.049,1.717c-0.803,1.072-1.67,2.098-2.702,2.943c-0.993,0.887-2.133,1.589-3.306,2.191
				c-1.202,0.542-2.434,1.032-3.728,1.261c-0.634,0.167-1.291,0.203-1.936,0.286c-0.659,0.054-1.279,0.032-1.971,0.028l-1.885-0.208
				l-1.893-0.455l-1.789-0.69l-1.677-0.9l1.755,0.703l1.815,0.477l1.827,0.26l1.896,0.032c1.183-0.09,2.437-0.243,3.593-0.603
				c1.182-0.301,2.28-0.846,3.336-1.419c1.02-0.641,2.014-1.326,2.855-2.18c0.882-0.811,1.596-1.777,2.249-2.764
				c0.594-1.026,1.143-2.081,1.477-3.212c0.217-0.548,0.307-1.134,0.451-1.701c0.105-0.576,0.166-1.104,0.227-1.695l0.027-0.947
				l0.014-0.473c0-0.02-0.002,0.116-0.002,0.052v-0.014l-0.002-0.028l-0.004-0.056l-0.008-0.112l-0.016-0.224
				c-0.031-0.599-0.07-1.195-0.168-1.778c-0.15-1.176-0.451-2.31-0.857-3.381c-0.4-1.076-0.951-2.077-1.654-2.952
				c-0.694-0.88-1.525-1.646-2.46-2.279c-1.874-1.267-4.131-2.001-6.458-2.369c-1.167-0.181-2.358-0.265-3.548-0.267
				c-0.594,0.007-1.188,0.024-1.774,0.073c-0.291,0.026-0.582,0.055-0.862,0.093c-0.249,0.031-0.62,0.101-0.664,0.117l0.994-1.7
				l0.001,0.004l-2.934,0.385c-0.148-1.381-0.231-2.779-0.497-4.127c-0.104-0.682-0.206-1.364-0.389-2.018
				c-0.183-0.653-0.275-1.345-0.526-1.967c-0.234-0.628-0.405-1.291-0.688-1.893c-0.297-0.593-0.535-1.224-0.873-1.789
				c-0.363-0.546-0.661-1.144-1.071-1.654c-0.432-0.49-0.783-1.054-1.271-1.492c-1.823-1.876-4.147-3.269-6.702-4.22
				c-0.65-0.213-1.286-0.463-1.948-0.652l-2.01-0.518c-1.367-0.26-2.737-0.562-4.12-0.724c-1.36-0.22-2.816-0.321-4.243-0.455
				l-0.269-0.024l-0.034-0.003c-0.075-0.003,0.083,0.002,0.061,0.001l-0.016,0l-0.064,0.001l-0.129,0.002l-0.517,0.007l-1.036,0.014
				c-0.688,0.042-1.376,0.11-2.064,0.173c-1.369,0.186-2.737,0.431-4.07,0.825c-0.665,0.2-1.336,0.388-1.979,0.656l-0.977,0.374
				l-0.948,0.441c-1.273,0.577-2.48,1.291-3.656,2.061c-0.571,0.407-1.141,0.822-1.694,1.258c-0.524,0.469-1.096,0.891-1.59,1.396
				c-0.509,0.49-1.026,0.977-1.485,1.519c-0.489,0.517-0.933,1.071-1.361,1.641C36.667,23.301,35.915,24.527,35.21,25.784z"/>
		</g>
		<g>
			<path fill="#90D5F6" d="M24.211,57.954l-1.078,0.666c-0.375,0.194-0.774,0.365-1.175,0.539c-0.815,0.286-1.657,0.53-2.532,0.623
				c-0.228,0.023-0.416,0.07-0.677,0.074l-0.631,0.015c-0.406,0.031-0.886-0.04-1.336-0.067c-0.452-0.051-0.886-0.14-1.33-0.226
				c-0.427-0.137-0.875-0.227-1.29-0.409c-0.85-0.313-1.661-0.743-2.422-1.256c-0.385-0.25-0.736-0.551-1.095-0.841
				c-0.321-0.331-0.683-0.628-0.968-0.995c-0.623-0.692-1.129-1.486-1.565-2.319c-0.41-0.844-0.758-1.737-0.924-2.674
				c-0.097-0.466-0.166-0.937-0.185-1.413l-0.026-0.356L6.97,49.225L6.967,49.18l0.001-0.111l0.004-0.158l0.018-0.63
				c0.005-0.411,0.107-0.981,0.171-1.463c0.122-0.462,0.201-0.94,0.369-1.39c0.292-0.916,0.722-1.785,1.252-2.585
				c0.531-0.798,1.153-1.537,1.865-2.178c0.696-0.66,1.494-1.2,2.324-1.674c0.417-0.233,0.857-0.426,1.292-0.622
				c0.452-0.155,0.896-0.342,1.364-0.441c0.464-0.116,0.928-0.229,1.403-0.278c0.471-0.082,0.946-0.107,1.422-0.12l0.356-0.013
				l0.044-0.001l0.113,0.002l0.079,0.004l0.158,0.009l0.629,0.036c0.424,0.025,0.977,0.128,1.457,0.2l-1.729,1.396l0.005-0.208
				l0.008-0.297l0.087-0.193c0.259-0.575,0.475-1.169,0.789-1.717c0.286-0.562,0.625-1.094,0.97-1.62
				c0.356-0.517,0.728-1.026,1.134-1.504c0.403-0.482,0.826-0.945,1.282-1.376c0.439-0.446,0.929-0.842,1.415-1.234
				c0.508-0.368,1.012-0.736,1.555-1.046c0.523-0.341,1.095-0.598,1.645-0.885c0.578-0.234,1.138-0.502,1.735-0.677
				c0.583-0.214,1.192-0.338,1.793-0.475c0.607-0.106,1.215-0.214,1.827-0.255c0.612-0.053,1.222-0.078,1.832-0.051l0.456,0.014
				c0.242,0.02,0.316,0.04,0.482,0.061l0.865,0.121c0.29,0.043,0.576,0.075,0.867,0.127l0.891,0.241
				c0.588,0.169,1.181,0.308,1.715,0.58c0.539,0.259,1.104,0.442,1.605,0.762l1.487,0.944l0,0l0.001,0.004l-0.002-0.004l0,0
				l-1.636-0.605c-0.542-0.193-1.116-0.291-1.663-0.44c-0.547-0.172-1.115-0.185-1.661-0.262l-0.818-0.106
				c-0.285-0.009-0.581,0-0.871,0l-0.874,0.005c-0.124,0.002-0.34-0.002-0.388,0.006l-0.415,0.049c-0.554,0.04-1.1,0.125-1.64,0.235
				c-0.541,0.098-1.069,0.258-1.592,0.411c-0.518,0.178-1.031,0.359-1.526,0.585c-0.508,0.193-0.977,0.473-1.46,0.712
				c-0.457,0.293-0.932,0.549-1.358,0.883c-0.446,0.303-0.852,0.659-1.26,1.007c-0.389,0.37-0.799,0.717-1.152,1.122
				c-0.371,0.387-0.711,0.8-1.034,1.227c-0.326,0.423-0.618,0.873-0.899,1.325c-0.269,0.461-0.535,0.922-0.751,1.41
				c-0.254,0.468-0.427,0.974-0.64,1.461l0.095-0.49l-0.002,0.208l-0.016,1.559l-1.713-0.163c-0.354-0.034-0.626-0.107-1.041-0.127
				l-0.629-0.025l-0.158-0.006l-0.079-0.003l-0.01,0c0.028,0.001-0.078-0.002,0.062,0.001l-0.017,0.001l-0.034,0.002l-0.273,0.017
				c-0.365,0.015-0.728,0.038-1.085,0.109c-0.362,0.04-0.712,0.136-1.063,0.229c-0.698,0.193-1.373,0.461-2.014,0.795
				c-0.631,0.35-1.245,0.744-1.776,1.235c-0.547,0.474-1.022,1.023-1.431,1.615c-0.195,0.303-0.401,0.6-0.55,0.927
				c-0.185,0.311-0.318,0.645-0.454,0.979c-0.148,0.33-0.214,0.687-0.332,1.029c-0.049,0.349-0.147,0.602-0.177,1.031l-0.048,0.628
				l-0.012,0.157l-0.001,0.02c0.003-0.136,0.001-0.033,0.002-0.061v0.009l0.001,0.034l0.002,0.068l0.007,0.273
				c-0.006,0.366,0.03,0.729,0.087,1.09c0.1,0.723,0.288,1.437,0.561,2.125c0.29,0.679,0.635,1.348,1.093,1.946
				c0.441,0.61,0.968,1.16,1.543,1.663c0.581,0.496,1.221,0.938,1.915,1.287c0.688,0.358,1.433,0.63,2.187,0.84
				c0.382,0.074,0.727,0.198,1.164,0.23l0.627,0.076c0.159,0.023,0.389,0.009,0.581,0.016c0.807,0.054,1.623-0.033,2.431-0.165
				c0.392-0.102,0.802-0.164,1.207-0.279L24.211,57.954z"/>
		</g>
		<g>
			<path fill="#90D5F6" d="M76.948,47.169l0.557-0.321c0.192-0.094,0.397-0.17,0.6-0.257c0.413-0.14,0.839-0.258,1.28-0.301
				c0.485-0.079,0.872-0.002,1.313-0.005c0.431,0.077,0.91,0.17,1.338,0.326c0.407,0.197,0.858,0.338,1.217,0.635l0.567,0.406
				l0.481,0.509c0.354,0.319,0.546,0.763,0.813,1.157c0.186,0.432,0.385,0.881,0.481,1.35l0.109,0.718l0.025,0.181l0.006,0.045
				l0.004,0.023l0.001,0.011l-0.004,0.082l-0.004,0.08l-0.018,0.32l-0.034,0.641c-0.059,0.251-0.127,0.505-0.199,0.759
				c-0.115,0.538-0.394,0.924-0.613,1.377c-0.276,0.404-0.582,0.807-0.935,1.151c-0.38,0.317-0.739,0.677-1.192,0.894
				c-0.219,0.121-0.435,0.252-0.659,0.36l-0.713,0.243c-0.471,0.196-0.98,0.203-1.48,0.28l-0.188,0.021l-0.023,0.002l-0.012,0.001
				l-0.11-0.006l-0.04-0.002l-0.08-0.005l-0.319-0.021l-0.641-0.043l1.166-1.038l0.001,0.105l0.002,0.195l-0.072,0.166l-0.397,0.915
				c-0.12,0.313-0.294,0.597-0.476,0.878c-0.185,0.278-0.337,0.581-0.554,0.837l-0.651,0.769c-0.209,0.265-0.49,0.46-0.735,0.692
				c-0.254,0.225-0.505,0.453-0.8,0.624l-0.861,0.55l-0.936,0.419c-0.31,0.153-0.643,0.234-0.976,0.319
				c-0.334,0.075-0.662,0.198-1.004,0.226l-1.027,0.098l-0.257,0.022l-0.312-0.013l-0.443-0.022l-0.449-0.025l-0.547-0.093
				c-0.362-0.068-0.745-0.125-1.059-0.245c-0.326-0.114-0.666-0.199-0.979-0.345l-0.937-0.449l-0.681-0.326l-0.016-0.88v-0.002
				l2.658,0.585c-0.348,0.625-0.638,1.294-1.054,1.88c-0.432,0.573-0.825,1.187-1.361,1.67l-0.765,0.762
				c-0.27,0.235-0.567,0.441-0.851,0.661c-0.555,0.463-1.19,0.803-1.823,1.146l-0.473,0.259l-0.502,0.196l-1.009,0.384
				c-0.68,0.23-1.396,0.342-2.095,0.51L57.127,69.3l-0.538,0.04l-0.269,0.019l-0.067,0.005l-0.034,0.002l-0.135-0.005l-0.12-0.008
				c-0.641-0.049-1.256-0.082-1.966-0.179c-0.692-0.07-1.363-0.204-2.041-0.332c-0.68-0.158-1.359-0.336-2.037-0.585
				c-1.347-0.49-2.7-1.251-3.773-2.362c-0.534-0.552-0.992-1.174-1.359-1.833c-0.354-0.663-0.636-1.348-0.842-2.039
				c-0.199-0.688-0.366-1.383-0.452-2.067c-0.121-0.689-0.147-1.365-0.204-2.045l2.625-0.344l0,0.002l0.224,1.233l-1.114,0.289
				c-0.139,0.036-0.31,0.075-0.425,0.093l-0.294,0.037c-0.2,0.026-0.371,0.028-0.558,0.043c-0.363,0.012-0.721,0.025-1.078,0.002
				c-0.714-0.019-1.429-0.123-2.138-0.279c-0.708-0.175-1.412-0.416-2.083-0.765c-0.666-0.356-1.313-0.798-1.841-1.37
				c-0.264-0.287-0.535-0.566-0.724-0.908c-0.206-0.328-0.428-0.648-0.547-1.01c-0.329-0.697-0.454-1.424-0.588-2.142l-0.046-1.068
				l-0.009-0.266l-0.002-0.066l-0.001-0.033l0.004-0.122l0.002-0.015l0.017-0.119l0.068-0.477c0.064-0.332,0.047-0.604,0.178-0.984
				l0.371-1.095c0.122-0.366,0.346-0.642,0.517-0.963c0.175-0.315,0.365-0.619,0.622-0.875c0.241-0.265,0.466-0.545,0.723-0.788
				l0.852-0.643c0.267-0.234,0.614-0.348,0.924-0.513c0.319-0.148,0.623-0.328,0.973-0.392l1.013-0.261
				c0.344-0.042,0.693-0.046,1.036-0.068l0.547-0.022l0.478,0.06l0.48,0.066l0.511,0.133c0.346,0.075,0.66,0.204,0.968,0.341
				c0.318,0.115,0.603,0.297,0.891,0.466c0.575,0.341,1.073,0.792,1.513,1.277c0.224,0.239,0.398,0.522,0.595,0.777
				c0.173,0.274,0.318,0.566,0.476,0.844c-0.2-0.254-0.384-0.516-0.591-0.756c-0.232-0.22-0.436-0.462-0.684-0.658
				c-0.489-0.397-1.013-0.74-1.576-0.991c-0.284-0.122-0.559-0.255-0.86-0.321c-0.293-0.089-0.586-0.168-0.876-0.192l-0.431-0.063
				l-0.479-0.006l-0.482-0.006c-0.082,0.024-0.277,0.048-0.41,0.072c-0.293,0.051-0.587,0.082-0.873,0.145l-0.825,0.31
				c-0.284,0.075-0.519,0.261-0.768,0.408c-0.238,0.165-0.513,0.271-0.708,0.493l-0.633,0.581c-0.189,0.213-0.345,0.455-0.521,0.676
				c-0.19,0.213-0.316,0.467-0.43,0.726c-0.105,0.255-0.284,0.502-0.334,0.756c-0.061,0.252-0.127,0.499-0.2,0.742
				c-0.086,0.226-0.057,0.614-0.091,0.914l-0.029,0.48l-0.007,0.12l-0.001,0.015c0.01-0.208,0.003-0.054,0.006-0.099l0,0.007
				l0.004,0.026l0.007,0.054l0.027,0.214l0.1,0.85c0.143,0.533,0.26,1.074,0.519,1.528c0.089,0.252,0.261,0.445,0.406,0.653
				c0.128,0.223,0.327,0.386,0.506,0.563c0.36,0.352,0.809,0.616,1.283,0.837c0.481,0.215,1.007,0.362,1.551,0.465
				c0.551,0.081,1.11,0.159,1.681,0.148c0.283,0.01,0.568-0.014,0.844-0.031c0.133-0.016,0.283-0.023,0.4-0.045l0.183-0.029
				c0.042-0.009,0.026-0.01,0.044-0.007l-0.889,1.521l0-0.002l2.625-0.344c0.074,0.593,0.116,1.197,0.24,1.765
				c0.092,0.582,0.251,1.131,0.423,1.664c0.179,0.53,0.407,1.022,0.67,1.479c0.278,0.445,0.577,0.863,0.939,1.224
				c0.719,0.724,1.648,1.251,2.703,1.623c0.527,0.188,1.086,0.327,1.655,0.453c0.579,0.1,1.166,0.212,1.748,0.263
				c0.559,0.076,1.223,0.104,1.857,0.148l0.12,0.009l0.015,0.001l0.008,0.001c0.025,0.001-0.194-0.007-0.098-0.004l0.026-0.002
				l0.052-0.004l0.209-0.016l0.419-0.029l0.839-0.055c0.542-0.137,1.103-0.205,1.633-0.38l0.787-0.291l0.395-0.144l0.368-0.201
				c0.494-0.264,0.998-0.513,1.429-0.875c0.222-0.169,0.459-0.322,0.672-0.503l0.598-0.589c0.436-0.362,0.717-0.854,1.083-1.278
				c0.344-0.442,0.572-0.958,0.875-1.431l2.744-4.292l-0.085,4.876v0.002l-0.696-1.207l0.652,0.34
				c0.217,0.115,0.458,0.173,0.685,0.267c0.236,0.105,0.444,0.126,0.66,0.184l0.322,0.083l0.436,0.04l0.442,0.037l0.11,0.009
				l0.055,0.005l0.028,0.002l0.014,0.001l0.003,0c-0.038-0.001,0.091,0.003-0.085-0.003l0.006,0l0.186-0.013l0.741-0.043
				c0.25-0.005,0.484-0.099,0.729-0.141c0.243-0.051,0.489-0.094,0.715-0.204l0.701-0.264l0.655-0.372
				c0.23-0.108,0.424-0.272,0.622-0.43c0.19-0.166,0.421-0.29,0.586-0.486l0.53-0.554c0.18-0.184,0.302-0.414,0.459-0.617
				c0.154-0.207,0.306-0.417,0.407-0.656l0.355-0.692l-0.07,0.361l0.005-0.105l0.056-1.178l1.11,0.14l0.636,0.08l0.318,0.04
				l0.079,0.01l0.04,0.005l0.005,0c-0.043-0.002,0.104,0.005-0.095-0.004l0.008,0l0.017-0.001l0.13-0.01
				c0.344-0.038,0.71,0.012,1.043-0.111l0.516-0.124c0.163-0.065,0.319-0.149,0.482-0.22c0.343-0.118,0.604-0.366,0.904-0.564
				c0.273-0.226,0.513-0.5,0.743-0.774c0.168-0.305,0.433-0.609,0.507-0.917c0.06-0.153,0.122-0.306,0.194-0.461l0.1-0.634
				l0.05-0.317l0.013-0.079l0.001-0.005c0.004-0.066-0.004,0.084-0.004,0.067v-0.009l-0.001-0.017l-0.002-0.034l-0.008-0.138
				l-0.025-0.557c-0.035-0.369-0.159-0.73-0.265-1.092c-0.188-0.325-0.291-0.713-0.56-0.997l-0.353-0.464l-0.434-0.395
				c-0.271-0.297-0.641-0.453-0.975-0.676c-0.353-0.178-0.714-0.299-1.104-0.428c-0.411-0.046-0.873-0.179-1.24-0.166
				c-0.415-0.022-0.832,0.028-1.244,0.102c-0.201,0.053-0.408,0.095-0.612,0.16L76.948,47.169z"/>
		</g>
		<g>
			<path fill="#D3EAF2" d="M62.291,47.362c0,0-0.072-0.101-0.16-0.317c-0.089-0.222-0.224-0.542-0.325-0.97
				c-0.111-0.425-0.231-0.954-0.27-1.577c-0.06-0.623-0.051-1.343,0.079-2.136c0.163-0.784,0.386-1.678,0.945-2.514
				c0.532-0.831,1.326-1.642,2.312-2.139c0.244-0.123,0.488-0.279,0.745-0.373c0.26-0.083,0.522-0.167,0.786-0.252
				c0.533-0.202,1.064-0.222,1.61-0.309l0.204-0.027l0.102-0.013l0.051-0.007l0.013-0.001c-0.136-0.002,0.2,0,0.169,0l0.022,0.001
				l0.357,0.013l0.716,0.032c0.21-0.008,0.533,0.065,0.849,0.142l0.933,0.24c0.594,0.197,1.072,0.501,1.603,0.76
				c0.479,0.328,0.93,0.703,1.358,1.078c0.37,0.438,0.768,0.852,1.063,1.326c0.256,0.498,0.572,0.959,0.732,1.476
				c0.138,0.522,0.346,1.017,0.391,1.529c0.019,0.256,0.036,0.509,0.055,0.759l0.021,0.37l0.009,0.182l0.003,0.167l-0.011,0.077
				c-0.07,0.429-0.067,0.765-0.216,1.271c-0.063,0.229-0.127,0.454-0.188,0.674c-0.085,0.197-0.169,0.39-0.251,0.579
				c-0.32,0.753-0.783,1.345-1.216,1.815c-0.443,0.464-0.878,0.806-1.268,1.03c-0.363,0.256-0.704,0.365-0.916,0.458
				c-0.216,0.084-0.331,0.128-0.331,0.128s0.081-0.094,0.233-0.271c0.154-0.17,0.378-0.412,0.609-0.756
				c0.254-0.32,0.485-0.763,0.729-1.245c0.218-0.501,0.417-1.071,0.522-1.699c0.025-0.155,0.051-0.314,0.077-0.476
				c0.001-0.149,0.002-0.302,0.003-0.457c0.033-0.255-0.025-0.732-0.046-1.126l-0.005-0.078c0-0.073,0,0.088-0.001,0.069
				l-0.003-0.008l-0.004-0.016l-0.009-0.032l-0.034-0.128l-0.064-0.257c-0.04-0.17-0.081-0.343-0.122-0.517
				c-0.091-0.343-0.285-0.659-0.412-0.996c-0.151-0.328-0.408-0.607-0.591-0.923c-0.227-0.29-0.521-0.528-0.759-0.813
				c-0.302-0.217-0.605-0.436-0.91-0.655c-0.339-0.137-0.685-0.358-1.004-0.454c-0.155-0.04-0.308-0.085-0.459-0.137
				c-0.147-0.053-0.286-0.122-0.56-0.122l-0.715-0.059l-0.355-0.033l-0.022-0.002c-0.038-0.001,0.29,0.003,0.147,0.002l-0.009,0
				l-0.038,0.003l-0.074,0.007l-0.149,0.013c-0.798,0.051-1.574,0.142-2.209,0.422c-0.67,0.232-1.208,0.63-1.673,1.104
				c-0.474,0.468-0.806,1.067-1.099,1.644c-0.244,0.6-0.459,1.188-0.585,1.737c-0.129,0.546-0.227,1.043-0.278,1.456
				C62.28,46.862,62.291,47.362,62.291,47.362z"/>
		</g>
	</g>
</g>
<g id="cloud2" class="slower">
	<g>
		<path fill="#65C0DB" d="M50.371,114.896c0,0,0.281,0.329,0.717,0.929c0.202,0.313,0.501,0.652,0.821,1.014
			c0.31,0.372,0.664,0.769,1.096,1.186c0.397,0.436,0.887,0.845,1.391,1.273c0.479,0.453,1.083,0.82,1.639,1.254
			c0.613,0.368,1.208,0.788,1.878,1.11c0.639,0.374,1.345,0.638,2.028,0.942c0.708,0.244,1.408,0.513,2.128,0.676
			c0.708,0.223,1.432,0.296,2.129,0.448c0.702,0.042,1.392,0.188,2.049,0.162c0.333,0.011,0.657,0.021,0.97,0.032
			c0.315-0.018,0.619-0.033,0.911-0.049c0.595-0.014,1.131-0.101,1.622-0.163c0.246-0.03,0.474-0.068,0.694-0.087
			c0.211-0.045,0.406-0.087,0.581-0.124c0.709-0.15,1.149-0.213,1.149-0.213s-0.307,0.29-0.904,0.757
			c-0.151,0.117-0.319,0.246-0.501,0.387c-0.192,0.123-0.411,0.233-0.642,0.364c-0.463,0.26-0.993,0.569-1.625,0.76
			c-0.313,0.113-0.641,0.23-0.979,0.353c-0.347,0.086-0.711,0.153-1.087,0.234c-0.752,0.187-1.564,0.186-2.409,0.241
			c-0.835-0.052-1.723-0.049-2.585-0.261c-0.883-0.13-1.734-0.438-2.591-0.724c-0.819-0.376-1.66-0.715-2.393-1.222
			c-0.772-0.438-1.435-1.015-2.077-1.552c-0.308-0.285-0.59-0.59-0.865-0.884c-0.279-0.29-0.543-0.58-0.757-0.902
			c-0.224-0.312-0.446-0.607-0.645-0.904c-0.19-0.303-0.34-0.62-0.499-0.908c-0.149-0.297-0.314-0.558-0.426-0.843
			c-0.103-0.288-0.2-0.562-0.292-0.817c-0.087-0.255-0.175-0.486-0.237-0.706c-0.052-0.219-0.08-0.421-0.116-0.603
			C50.413,115.327,50.371,114.896,50.371,114.896z"/>
	</g>
	<g>
		<path fill="#90D5F6" d="M78.423,77.489l-0.937,0.91c-0.303,0.311-0.65,0.582-0.93,0.907l-0.817,0.973
			c-0.267,0.324-0.565,0.606-0.782,0.976l-0.697,1.043l-0.347,0.515l-0.288,0.552l-0.566,1.1c-0.208,0.354-0.342,0.746-0.475,1.136
			c-0.134,0.389-0.278,0.771-0.425,1.151c-0.167,0.371-0.242,0.779-0.338,1.177l-0.283,1.192c-0.114,0.39-0.16,0.799-0.199,1.209
			c-0.08,0.818-0.269,1.612-0.273,2.438l-0.056,2.466l-0.035,1.54l-1.828-0.193c-0.086-0.009-0.491-0.081-0.784-0.108
			c-0.318-0.037-0.648-0.063-0.979-0.08c-0.662-0.035-1.332-0.047-2-0.021c-0.668,0.02-1.334,0.069-1.995,0.149
			c-0.66,0.079-1.318,0.165-1.963,0.299c-0.649,0.123-1.28,0.297-1.908,0.475c-0.621,0.194-1.23,0.415-1.817,0.679
			c-0.583,0.266-1.161,0.547-1.696,0.889c-0.54,0.335-1.058,0.708-1.524,1.134c-0.241,0.206-0.473,0.422-0.681,0.66
			c-0.222,0.227-0.438,0.46-0.632,0.712c-0.208,0.242-0.406,0.494-0.576,0.767c-0.184,0.264-0.367,0.53-0.513,0.819
			c-0.333,0.558-0.583,1.165-0.836,1.776l-0.343,0.938l-0.268,0.974c-0.167,0.655-0.283,1.33-0.394,2.01l-0.139,1.028
			c-0.042,0.288-0.041,0.693-0.063,1.034c-0.025,0.363-0.02,0.696-0.011,1.038c0.005,0.342,0.002,0.689,0.051,1.037
			c0.047,0.702,0.172,1.395,0.292,2.105c-0.313-0.641-0.618-1.301-0.829-1.997c-0.128-0.342-0.207-0.7-0.292-1.062
			c-0.086-0.362-0.183-0.731-0.214-1.079c-0.042-0.368-0.106-0.673-0.13-1.093l-0.051-1.099c-0.028-0.734,0.017-1.476,0.089-2.217
			l0.142-1.114l0.233-1.11c0.196-0.733,0.43-1.465,0.75-2.169c0.14-0.36,0.323-0.702,0.511-1.043c0.174-0.349,0.38-0.68,0.604-1.003
			c0.207-0.334,0.44-0.649,0.701-0.945c0.243-0.31,0.512-0.597,0.793-0.871c0.548-0.565,1.159-1.066,1.796-1.521
			c0.636-0.458,1.31-0.856,2.004-1.205c0.698-0.341,1.415-0.627,2.142-0.879c0.728-0.24,1.468-0.439,2.211-0.591
			c1.487-0.315,2.993-0.466,4.494-0.474c0.751-0.013,1.501,0.015,2.255,0.07c0.377,0.027,0.754,0.065,1.141,0.117
			c0.411,0.06,0.711,0.086,1.309,0.267l-1.862,1.346l0.227-2.703c0.019-0.45,0.119-0.897,0.207-1.343l0.267-1.336
			c0.09-0.444,0.188-0.886,0.358-1.314l0.449-1.291c0.152-0.428,0.283-0.862,0.509-1.263c0.202-0.41,0.407-0.816,0.621-1.216
			c0.207-0.404,0.414-0.805,0.696-1.167l0.785-1.108l0.395-0.546l0.469-0.489l0.935-0.965c0.291-0.334,0.67-0.598,1.018-0.879
			l1.06-0.809c0.352-0.262,0.741-0.453,1.117-0.672L78.423,77.489z"/>
	</g>
	<g>
		<path fill="#D3EAF2" d="M119.576,87.76c0,0-0.439-0.615-1.209-1.691c-0.418-0.509-0.861-1.14-1.472-1.808
			c-0.573-0.689-1.294-1.398-2.06-2.169c-0.406-0.362-0.829-0.738-1.267-1.128c-0.466-0.355-0.914-0.755-1.407-1.127
			c-0.998-0.73-2.085-1.438-3.246-2.097c-0.586-0.32-1.175-0.656-1.808-0.922c-0.617-0.298-1.258-0.558-1.908-0.812
			c-1.29-0.53-2.661-0.899-4.037-1.22c-1.385-0.286-2.784-0.505-4.179-0.597l-1.041-0.058l-0.26-0.02l-0.032-0.002
			c-0.027,0,0.183-0.008,0.086-0.004l-0.018,0.001l-0.068,0.002l-0.136,0.005l-0.544,0.02c-0.713,0.036-1.458,0.03-2.118,0.098
			c-0.673,0.055-1.335,0.108-1.983,0.161c-0.654,0.074-1.294,0.146-1.917,0.216c-1.23,0.209-2.416,0.36-3.48,0.616
			c-1.083,0.209-2.04,0.511-2.917,0.734c-0.857,0.288-1.604,0.538-2.219,0.745c-1.192,0.513-1.913,0.787-1.913,0.787
			s0.568-0.489,1.632-1.313c0.559-0.357,1.234-0.821,2.054-1.276c0.833-0.416,1.769-0.94,2.858-1.323
			c1.068-0.456,2.269-0.814,3.549-1.166c0.646-0.151,1.31-0.306,1.987-0.464c0.685-0.147,1.4-0.229,2.122-0.349
			c0.733-0.124,1.419-0.165,2.146-0.252l0.541-0.058l0.136-0.014l0.067-0.007l0.173-0.006h0.288
			c0.385,0.007,0.771,0.015,1.159,0.022c1.556,0.033,3.125,0.269,4.676,0.576c1.533,0.391,3.053,0.844,4.48,1.467l1.065,0.462
			c0.339,0.183,0.676,0.365,1.012,0.546c0.678,0.346,1.306,0.762,1.926,1.161c1.245,0.794,2.327,1.731,3.313,2.642
			c0.481,0.469,0.933,0.942,1.362,1.402c0.408,0.481,0.781,0.963,1.147,1.414c0.693,0.936,1.277,1.825,1.717,2.657
			c0.487,0.795,0.776,1.585,1.059,2.184c0.262,0.61,0.393,1.116,0.517,1.448C119.518,87.579,119.576,87.76,119.576,87.76z"/>
	</g>
	<g>
		<path fill="#BEE1EF" d="M80.232,120.183c0,0,0.265,0.241,0.674,0.69c0.209,0.212,0.435,0.529,0.744,0.773
			c0.285,0.253,0.606,0.538,0.957,0.849c0.371,0.279,0.772,0.583,1.197,0.903c0.464,0.258,0.899,0.582,1.393,0.841
			c0.521,0.214,0.984,0.553,1.546,0.715c0.27,0.103,0.544,0.196,0.81,0.313c0.268,0.112,0.563,0.149,0.842,0.23
			c0.282,0.069,0.558,0.179,0.844,0.225c0.29,0.032,0.575,0.085,0.861,0.131l0.427,0.073l0.106,0.021l0.014,0.003
			c0.032,0-0.257,0.001-0.131,0.001h0.007l0.031,0.001l0.061,0.001l0.243,0.004c0.322,0.008,0.642,0.017,0.955,0.024
			c0.312,0.013,0.617,0.026,0.917,0.039c0.272-0.008,0.539-0.015,0.798-0.021c0.523-0.012,1.041,0.037,1.508-0.037
			c0.472-0.045,0.922-0.063,1.33-0.082c0.396-0.066,0.74-0.124,1.024-0.171c0.586-0.094,0.958-0.127,0.958-0.127
			s-0.229,0.255-0.698,0.664c-0.236,0.196-0.52,0.474-0.886,0.71c-0.372,0.211-0.803,0.451-1.291,0.688
			c-0.479,0.27-1.05,0.413-1.656,0.595c-0.307,0.083-0.622,0.167-0.944,0.254c-0.312,0.07-0.608,0.095-0.922,0.146
			c-0.312,0.039-0.628,0.079-0.948,0.12l-0.24,0.028l-0.061,0.007l-0.03,0.004l-0.171,0.001l-0.136-0.007l-0.547-0.043
			c-0.367-0.03-0.739-0.055-1.109-0.101c-0.369-0.053-0.729-0.169-1.095-0.256c-0.358-0.111-0.73-0.183-1.073-0.332
			c-0.345-0.146-0.68-0.313-1.014-0.468l-0.495-0.238l-0.453-0.306c-0.298-0.203-0.591-0.405-0.87-0.614
			c-0.551-0.426-0.997-0.945-1.438-1.391c-0.389-0.502-0.713-1.007-1.007-1.459c-0.264-0.494-0.447-0.982-0.612-1.386
			c-0.195-0.399-0.204-0.766-0.276-1.063C80.264,120.539,80.232,120.183,80.232,120.183z"/>
	</g>
	<g>
		<path fill="#BEE1EF" d="M144.909,114.954l0.217-1.398c0.023-0.468,0.08-0.917,0.094-1.37c-0.016-0.46-0.005-0.913-0.031-1.362
			c-0.056-0.449-0.068-0.897-0.158-1.334c-0.107-0.433-0.154-0.872-0.294-1.286c-0.145-0.412-0.225-0.842-0.428-1.221
			c-0.179-0.389-0.334-0.783-0.58-1.123l-0.322-0.53c-0.121-0.166-0.26-0.316-0.386-0.476c-0.134-0.152-0.245-0.323-0.393-0.46
			L142.177,104c-0.274-0.29-0.642-0.462-0.967-0.677c-0.312-0.236-0.714-0.329-1.06-0.507c-0.345-0.184-0.767-0.21-1.141-0.329
			c-0.371-0.133-0.805-0.096-1.2-0.155c-0.397-0.065-0.818-0.021-1.233-0.006c-0.416,0.01-0.829,0.002-1.254,0.092l-1.264,0.188
			l-1.7,0.255l-0.05-1.668l-0.006-0.207l0.097,0.497l-0.664-1.436l-0.797-1.363c-0.293-0.437-0.619-0.851-0.924-1.281
			c-0.338-0.404-0.699-0.789-1.045-1.188c-0.371-0.375-0.78-0.712-1.16-1.082c-0.406-0.339-0.839-0.648-1.257-0.979
			c-0.443-0.292-0.905-0.56-1.357-0.846c-0.474-0.245-0.965-0.456-1.439-0.71l-1.505-0.584l-1.568-0.419
			c-0.534-0.073-1.067-0.199-1.61-0.276c-0.543-0.032-1.092-0.09-1.644-0.106c-0.547,0.035-1.107,0.014-1.664,0.054
			c-0.55,0.079-1.111,0.137-1.669,0.233c-0.547,0.131-1.108,0.247-1.664,0.396l-1.652,0.554h0.001l-0.003,0.004l0.001-0.004l0.001,0
			c0.471-0.342,0.96-0.671,1.454-1.007c0.518-0.283,1.056-0.538,1.595-0.812c0.553-0.228,1.13-0.398,1.704-0.601
			c0.583-0.157,1.182-0.275,1.782-0.393c0.604-0.078,1.216-0.11,1.831-0.165c0.612-0.001,1.23,0.015,1.85,0.048l1.838,0.278
			l1.805,0.477c0.583,0.215,1.163,0.452,1.739,0.695c0.551,0.292,1.113,0.572,1.657,0.883c0.52,0.349,1.055,0.684,1.563,1.054
			c0.48,0.404,0.971,0.803,1.431,1.233c0.43,0.461,0.886,0.901,1.29,1.386c0.376,0.507,0.771,1.003,1.127,1.525
			c0.324,0.542,0.651,1.085,0.946,1.644l0.755,1.738l0.095,0.218l0.002,0.28l0.002,0.208l-1.75-1.413l1.513-0.196
			c0.498-0.087,1.021-0.077,1.54-0.077c0.519,0.003,1.034,0.001,1.56,0.109c0.521,0.105,1.047,0.115,1.558,0.314
			c0.507,0.186,1.035,0.28,1.513,0.553c0.471,0.271,0.993,0.444,1.401,0.817c0.425,0.342,0.874,0.646,1.215,1.071l0.538,0.599
			c0.172,0.203,0.301,0.439,0.45,0.657c0.142,0.224,0.294,0.441,0.422,0.67l0.322,0.714c0.231,0.47,0.351,0.971,0.488,1.462
			c0.163,0.486,0.188,0.996,0.275,1.489c0.09,0.493,0.046,0.998,0.066,1.489c0.002,0.493-0.077,0.983-0.113,1.468
			c-0.06,0.483-0.188,0.957-0.286,1.427c-0.132,0.469-0.291,0.932-0.445,1.381C145.318,114.104,145.119,114.529,144.909,114.954z"/>
	</g>
	<g>
		<path fill="#D3EAF2" d="M110.333,120.023c0.421,0.16,0.854,0.299,1.282,0.393l0.653,0.097c0.219,0.001,0.437,0.021,0.65,0.007
			c0.214-0.032,0.429-0.024,0.634-0.086c0.207-0.044,0.41-0.092,0.603-0.179c0.199-0.063,0.381-0.168,0.561-0.271
			c0.188-0.086,0.342-0.238,0.512-0.353c0.323-0.262,0.606-0.571,0.87-0.897c0.251-0.34,0.489-0.688,0.696-1.063
			c0.201-0.377,0.398-0.756,0.56-1.158c0.178-0.391,0.311-0.808,0.461-1.213l-0.01,0.468c-0.282-0.674-0.602-1.322-0.962-1.925
			c-0.183-0.3-0.383-0.58-0.591-0.849c-0.216-0.26-0.443-0.5-0.684-0.713c-0.247-0.202-0.5-0.387-0.77-0.522
			c-0.27-0.134-0.543-0.25-0.834-0.301c-0.14-0.042-0.29-0.048-0.437-0.066c-0.144-0.023-0.3-0.004-0.447-0.011
			c-0.302,0.014-0.61,0.056-0.92,0.12l-1.187,0.245l-0.06-1.257l-0.006-0.105l0.158,0.535c-1.141-1.718-2.88-3.006-4.803-3.755
			c-0.957-0.376-1.969-0.636-2.942-0.698c-0.479-0.029-0.962-0.016-1.345,0.074c-0.198,0.037-0.352,0.105-0.456,0.159
			c-0.106,0.056-0.123,0.102-0.085,0.057l0.204-0.724v0.002l0.106,6.054l-2.748-5.473c-1.004-1.999-2.638-3.694-4.652-4.687
			c-0.496-0.261-1.021-0.46-1.554-0.629c-0.533-0.173-1.083-0.284-1.635-0.374l-0.836-0.084l-0.421-0.012l-0.21-0.007l-0.053-0.001
			l-0.026-0.001l-0.007,0c0.036-0.001-0.09,0.002,0.08-0.002l-0.015,0.001l-0.12,0.007c-0.658,0.04-1.216,0.076-1.832,0.14
			c-1.199,0.128-2.365,0.337-3.418,0.7c-1.054,0.363-1.968,0.894-2.674,1.627c-1.422,1.454-2.071,3.774-2.299,6.174l-1.739,1.159
			c0.089,0.022-0.119-0.028-0.223-0.037c-0.127-0.02-0.265-0.034-0.403-0.046c-0.277-0.022-0.562-0.037-0.845-0.033
			c-0.568-0.001-1.133,0.056-1.679,0.152c-1.094,0.188-2.098,0.608-2.84,1.291c-0.749,0.676-1.212,1.646-1.421,2.745
			c-0.037,0.279-0.096,0.556-0.11,0.847l-0.019,0.216c-0.003,0.014-0.006,0.121-0.01,0.059v0.12l0.002,0.48
			c0.025,0.482,0.128,1.062,0.31,1.577c0.721,2.097,2.791,3.781,5.15,4.129c1.171,0.176,2.422,0.064,3.532-0.469
			c0.554-0.262,1.079-0.602,1.556-1.013c0.468-0.422,0.88-0.911,1.248-1.44c-0.55,1.155-1.381,2.24-2.533,2.948
			c-1.134,0.725-2.526,1.07-3.901,1.001c-1.378-0.062-2.745-0.505-3.925-1.275c-1.181-0.766-2.173-1.885-2.76-3.224
			c-0.295-0.675-0.492-1.354-0.592-2.148l-0.041-0.48l-0.01-0.12l-0.001-0.182l0.001-0.265c-0.008-0.352,0.026-0.711,0.059-1.068
			c0.175-1.425,0.749-2.942,1.853-4.067c1.089-1.133,2.527-1.798,3.934-2.128c0.71-0.162,1.424-0.25,2.138-0.278
			c0.357-0.017,0.715-0.012,1.078,0.004c0.182,0.009,0.364,0.021,0.555,0.043c0.215,0.029,0.325,0.023,0.723,0.131l-1.738,1.158
			c0.091-1.345,0.275-2.715,0.689-4.088c0.409-1.365,1.102-2.754,2.174-3.872c1.059-1.13,2.424-1.912,3.779-2.394
			c1.362-0.487,2.73-0.736,4.071-0.897c0.656-0.073,1.372-0.142,1.992-0.166l0.12-0.006l0.151-0.001l0.067,0.002l0.269,0.011
			l0.538,0.023c0.357,0.032,0.715,0.075,1.071,0.121c0.709,0.121,1.413,0.276,2.096,0.504c0.682,0.225,1.354,0.492,1.988,0.832
			c0.643,0.323,1.246,0.718,1.829,1.139c0.571,0.436,1.118,0.906,1.612,1.429c1,1.034,1.8,2.256,2.393,3.563l-2.642,0.582v-0.002
			l0.007-0.411l0.197-0.313c0.34-0.54,0.802-0.853,1.207-1.052c0.411-0.195,0.808-0.313,1.176-0.374
			c0.746-0.136,1.426-0.115,2.088-0.054c1.318,0.14,2.547,0.504,3.705,1.021c2.292,1.055,4.322,2.754,5.605,4.96l0.16,0.276
			l-0.002,0.259l-0.002,0.105l-1.246-1.012c0.438-0.063,0.886-0.106,1.343-0.083c0.229,0.024,0.458,0.024,0.687,0.075
			c0.228,0.045,0.455,0.083,0.677,0.162c0.448,0.125,0.868,0.338,1.257,0.577c0.389,0.242,0.729,0.536,1.043,0.844
			c0.305,0.316,0.571,0.652,0.813,0.999c0.229,0.352,0.441,0.708,0.625,1.073c0.368,0.729,0.636,1.483,0.865,2.238l0.084,0.277
			l-0.094,0.19c-0.206,0.42-0.393,0.845-0.63,1.251c-0.218,0.414-0.478,0.811-0.741,1.2c-0.273,0.387-0.576,0.757-0.906,1.103
			c-0.346,0.335-0.715,0.647-1.128,0.903c-0.217,0.112-0.411,0.256-0.645,0.334c-0.225,0.094-0.448,0.185-0.688,0.23
			c-0.231,0.07-0.471,0.096-0.709,0.116c-0.236,0.04-0.476-0.002-0.71-0.005c-0.234-0.021-0.463-0.075-0.69-0.111l-0.661-0.203
			C111.126,120.445,110.727,120.245,110.333,120.023z"/>
	</g>
	<g>
		<path fill="#90D5F6" d="M128.767,109.222l-0.663,0.188l-0.621,0.227l-0.584,0.273c-0.178,0.117-0.357,0.22-0.522,0.335
			c-0.153,0.134-0.327,0.231-0.452,0.385c-0.137,0.139-0.269,0.275-0.369,0.438c-0.116,0.146-0.203,0.314-0.294,0.475
			c-0.103,0.149-0.148,0.345-0.226,0.507c-0.126,0.353-0.199,0.728-0.251,1.108c-0.044,0.388-0.07,0.778-0.063,1.181
			c0.011,0.403,0.018,0.806,0.071,1.219c0.033,0.406,0.103,0.824,0.159,1.234l-0.409-0.826c0.279,0.206,0.554,0.415,0.822,0.63
			c0.263,0.231,0.556,0.37,0.832,0.551c0.14,0.083,0.274,0.183,0.413,0.26l0.42,0.188l0.414,0.193
			c0.138,0.031,0.273,0.064,0.407,0.104c0.133,0.032,0.269,0.092,0.398,0.108l0.384,0.02c0.126,0.009,0.256,0.041,0.374-0.002
			c0.121-0.021,0.242-0.037,0.365-0.049c0.247-0.019,0.474-0.177,0.722-0.236c0.121-0.053,0.233-0.149,0.354-0.215l0.365-0.213
			l1.51-0.881l0.681,1.333l0.047,0.093l-0.535-0.558c0.468,0.274,0.93,0.567,1.403,0.813c0.235,0.135,0.474,0.252,0.715,0.357
			c0.24,0.113,0.478,0.236,0.722,0.323c0.242,0.092,0.484,0.206,0.73,0.27c0.245,0.073,0.491,0.176,0.738,0.219
			c0.494,0.117,0.994,0.215,1.494,0.227c0.504,0.04,1.008,0.003,1.512-0.093c0.26-0.025,0.496-0.133,0.752-0.195
			c0.253-0.073,0.495-0.185,0.752-0.277c0.489-0.231,0.967-0.517,1.444-0.836c0.465-0.335,0.916-0.705,1.375-1.097h0.001
			l-0.001-0.002l0.001,0.002l0,0c-0.238,0.549-0.524,1.085-0.878,1.59c-0.18,0.248-0.374,0.492-0.575,0.732
			c-0.218,0.223-0.446,0.443-0.681,0.662c-0.254,0.191-0.5,0.409-0.776,0.583c-0.286,0.151-0.561,0.348-0.872,0.461
			c-0.305,0.131-0.613,0.268-0.938,0.348c-0.321,0.104-0.649,0.184-0.983,0.219c-0.334,0.062-0.667,0.073-1.002,0.083
			c-0.34,0.028-0.665-0.016-0.998-0.036c-0.337-0.014-0.652-0.085-0.979-0.135c-0.329-0.049-0.635-0.146-0.95-0.227
			c-0.626-0.169-1.234-0.386-1.81-0.646c-0.592-0.24-1.138-0.542-1.691-0.838l-0.31-0.165l-0.226-0.393l-0.053-0.091l2.19,0.452
			l-0.589,0.407c-0.201,0.13-0.389,0.273-0.61,0.38c-0.469,0.176-0.914,0.421-1.419,0.502l-0.761,0.115
			c-0.255,0.05-0.504,0.017-0.755-0.001l-0.75-0.071c-0.243-0.039-0.464-0.122-0.696-0.186c-0.23-0.067-0.459-0.14-0.684-0.217
			l-0.605-0.31l-0.6-0.315c-0.186-0.116-0.355-0.244-0.531-0.37c-0.341-0.26-0.713-0.497-1-0.79l-0.902-0.853l-0.402-0.379
			l-0.007-0.447c-0.007-0.485-0.042-0.962-0.007-1.455c0.013-0.485,0.069-0.982,0.141-1.475c0.083-0.494,0.204-0.989,0.361-1.479
			c0.185-0.487,0.403-0.964,0.692-1.411c0.163-0.215,0.29-0.444,0.485-0.635c0.179-0.2,0.361-0.393,0.583-0.545
			c0.203-0.172,0.432-0.304,0.661-0.428c0.219-0.14,0.472-0.207,0.702-0.306c0.479-0.161,0.969-0.218,1.443-0.242
			C127.864,109.083,128.312,109.137,128.767,109.222z"/>
	</g>
</g>
<g id="cloud3" class="slow">
	<g>
		<g>
			<path fill="#90D5F6" d="M163.945,70.011c0,0-0.032,0.356-0.142,0.953c-0.072,0.298-0.081,0.664-0.276,1.064
				c-0.165,0.402-0.349,0.891-0.612,1.385c-0.294,0.452-0.618,0.957-1.008,1.459c-0.439,0.445-0.886,0.965-1.437,1.391
				c-0.279,0.209-0.571,0.41-0.87,0.615l-0.453,0.305l-0.495,0.238c-0.334,0.155-0.669,0.322-1.014,0.469
				c-0.343,0.148-0.715,0.219-1.073,0.331c-0.365,0.087-0.726,0.202-1.095,0.256c-0.37,0.046-0.742,0.069-1.109,0.101l-0.547,0.043
				l-0.136,0.006h-0.171l-0.03-0.004l-0.061-0.007l-0.24-0.028c-0.32-0.041-0.637-0.08-0.948-0.12
				c-0.313-0.051-0.61-0.075-0.922-0.146c-0.322-0.086-0.638-0.172-0.944-0.254c-0.606-0.182-1.178-0.326-1.656-0.594
				c-0.488-0.238-0.919-0.479-1.291-0.689c-0.366-0.236-0.649-0.514-0.886-0.71c-0.469-0.409-0.698-0.664-0.698-0.664
				s0.372,0.033,0.958,0.127c0.284,0.048,0.629,0.104,1.024,0.171c0.408,0.018,0.858,0.037,1.33,0.082
				c0.468,0.074,0.984,0.025,1.508,0.037c0.259,0.007,0.525,0.014,0.798,0.021c0.3-0.014,0.605-0.025,0.917-0.039
				c0.313-0.008,0.633-0.016,0.956-0.024l0.242-0.005h0.061l0.031-0.001h0.007c0.126,0.001-0.163-0.001-0.131-0.001l0.014-0.003
				l0.106-0.021l0.427-0.073c0.286-0.045,0.571-0.099,0.861-0.131c0.286-0.047,0.562-0.155,0.844-0.225
				c0.279-0.081,0.574-0.118,0.842-0.23c0.267-0.116,0.54-0.21,0.81-0.313c0.562-0.162,1.025-0.502,1.546-0.715
				c0.494-0.259,0.929-0.584,1.393-0.842c0.425-0.32,0.826-0.623,1.197-0.902c0.351-0.311,0.672-0.596,0.957-0.848
				c0.309-0.245,0.534-0.563,0.743-0.775C163.681,70.252,163.945,70.011,163.945,70.011z"/>
		</g>
		<g>
			<path fill="#D3EAF2" d="M133.845,69.852c-0.394,0.222-0.793,0.422-1.226,0.587l-0.661,0.203c-0.228,0.037-0.456,0.092-0.69,0.112
				c-0.234,0.003-0.474,0.045-0.71,0.005c-0.238-0.02-0.478-0.046-0.709-0.115c-0.239-0.047-0.463-0.138-0.688-0.23
				c-0.233-0.079-0.428-0.223-0.646-0.335c-0.412-0.257-0.781-0.568-1.127-0.903c-0.33-0.346-0.633-0.715-0.906-1.103
				c-0.265-0.39-0.524-0.786-0.741-1.2c-0.237-0.406-0.424-0.831-0.631-1.251l-0.1-0.204l0.091-0.264l0.389-1.126
				c0.11-0.382,0.321-0.738,0.493-1.106c0.092-0.182,0.175-0.368,0.276-0.547l0.353-0.521l0.358-0.521l0.453-0.472
				c0.157-0.153,0.298-0.322,0.474-0.46l0.563-0.383c0.191-0.125,0.374-0.265,0.598-0.334l0.651-0.249
				c0.436-0.167,0.902-0.168,1.359-0.245c0.227-0.017,0.446,0.015,0.671,0.026l0.672,0.054l-1.246,1.011l-0.002-0.105l-0.003-0.275
				l0.161-0.259c0.323-0.523,0.637-1.053,1.008-1.556c0.354-0.512,0.754-1.004,1.187-1.474c0.222-0.232,0.429-0.475,0.68-0.688
				c0.245-0.216,0.473-0.448,0.747-0.639c0.522-0.405,1.091-0.778,1.718-1.063c0.307-0.157,0.63-0.279,0.966-0.376
				c0.328-0.12,0.673-0.182,1.017-0.248c0.342-0.083,0.693-0.076,1.041-0.113c0.348-0.019,0.693,0.012,1.04,0.021
				c0.34,0.041,0.68,0.089,1.017,0.146c0.325,0.082,0.658,0.155,0.979,0.25c0.638,0.2,1.243,0.451,1.832,0.728l0.74,0.348
				l0.016,0.886v0.002l-2.642-0.582c0.348-0.625,0.638-1.293,1.053-1.878c0.433-0.571,0.815-1.192,1.354-1.672l0.765-0.761
				c0.27-0.236,0.566-0.44,0.85-0.661c0.555-0.463,1.189-0.802,1.822-1.145l0.473-0.259l0.502-0.197l1.009-0.383
				c0.679-0.232,1.395-0.343,2.093-0.511l1.073-0.092l0.537-0.04l0.269-0.02l0.067-0.004l0.033-0.002l0.132,0.003l0.12,0.007
				c0.637,0.035,1.263,0.081,1.967,0.168c0.689,0.069,1.354,0.19,2.037,0.327c0.68,0.138,1.362,0.336,2.043,0.567l1.013,0.418
				l0.986,0.534c0.313,0.217,0.629,0.429,0.932,0.66c0.283,0.258,0.58,0.505,0.845,0.783c0.523,0.566,0.972,1.187,1.336,1.843
				c0.16,0.334,0.333,0.667,0.476,1.004l0.363,1.023c0.185,0.685,0.364,1.372,0.457,2.053c0.134,0.685,0.159,1.356,0.232,2.034
				l-1.738-1.159c0.139-0.036,0.31-0.075,0.426-0.092l0.294-0.037c0.199-0.026,0.37-0.028,0.557-0.043
				c0.364-0.012,0.721-0.025,1.078-0.002c0.714,0.018,1.428,0.125,2.137,0.276c0.354,0.09,0.707,0.198,1.056,0.312
				c0.345,0.15,0.695,0.267,1.027,0.452c0.666,0.356,1.313,0.798,1.842,1.369c0.263,0.288,0.537,0.565,0.725,0.908
				c0.204,0.329,0.429,0.647,0.548,1.009c0.329,0.697,0.455,1.424,0.591,2.141l0.048,1.067l0.01,0.266l0.002,0.066l0.001,0.033
				l0.001,0.017l-0.005,0.11l-0.015,0.119l-0.062,0.477c-0.034,0.57-0.294,1.449-0.57,2.105c-0.168,0.324-0.324,0.653-0.507,0.964
				l-0.646,0.866c-0.488,0.523-1.004,1.018-1.606,1.389c-0.278,0.218-0.607,0.352-0.918,0.511c-0.307,0.171-0.635,0.287-0.97,0.386
				c-0.328,0.115-0.658,0.215-1.005,0.256c-0.343,0.051-0.678,0.137-1.026,0.121c-0.688,0.05-1.375-0.05-2.038-0.193l-0.968-0.323
				c-0.303-0.151-0.598-0.319-0.892-0.478c-0.549-0.379-1.087-0.785-1.479-1.316c-0.461-0.473-0.727-1.082-1.058-1.626
				c0.415,0.495,0.756,1.038,1.267,1.421c0.445,0.445,1.008,0.74,1.541,1.025l0.853,0.328l0.89,0.176
				c0.602,0.049,1.198,0.061,1.787-0.04c0.297-0.013,0.58-0.124,0.865-0.196c0.289-0.061,0.561-0.18,0.827-0.306
				c0.272-0.111,0.537-0.235,0.776-0.407c0.243-0.162,0.505-0.293,0.712-0.5c0.458-0.357,0.837-0.787,1.19-1.229l0.447-0.715
				c0.118-0.254,0.213-0.517,0.323-0.77c0.121-0.256,0.119-0.504,0.194-0.748c0.079-0.211,0.088-0.547,0.1-0.87l0.022-0.48
				l0.006-0.12c-0.002,0.039,0.004-0.099-0.004,0.086l-0.001-0.006l-0.002-0.014l-0.004-0.027l-0.007-0.053l-0.027-0.213
				l-0.099-0.85c-0.145-0.532-0.262-1.072-0.521-1.525c-0.089-0.251-0.263-0.442-0.406-0.651c-0.127-0.223-0.328-0.384-0.506-0.561
				c-0.36-0.351-0.808-0.613-1.281-0.834c-0.232-0.117-0.503-0.181-0.748-0.278c-0.265-0.066-0.531-0.131-0.801-0.185
				c-0.549-0.085-1.108-0.16-1.678-0.15c-0.283-0.01-0.567,0.014-0.844,0.031c-0.132,0.016-0.282,0.023-0.399,0.045l-0.183,0.029
				c-0.042,0.009-0.026,0.01-0.044,0.007l-1.601-0.245l-0.138-0.913c-0.09-0.591-0.13-1.2-0.268-1.767
				c-0.098-0.585-0.27-1.129-0.432-1.674l-0.307-0.773c-0.115-0.247-0.251-0.476-0.371-0.716c-0.13-0.232-0.29-0.434-0.428-0.656
				c-0.15-0.211-0.335-0.387-0.496-0.586c-0.179-0.182-0.382-0.338-0.566-0.513l-0.638-0.44l-0.705-0.37l-0.764-0.304
				c-0.534-0.17-1.08-0.326-1.656-0.435c-0.571-0.106-1.167-0.209-1.751-0.259c-0.565-0.071-1.216-0.098-1.854-0.146l-0.119-0.009
				l-0.016-0.001c-0.024-0.001,0.186,0.006,0.094,0.003l-0.007,0l-0.026,0.002l-0.052,0.004l-0.21,0.015L153.86,50.7l-0.839,0.055
				c-0.541,0.137-1.103,0.204-1.632,0.38l-0.787,0.291l-0.395,0.144l-0.368,0.202c-0.494,0.263-0.997,0.513-1.428,0.875
				c-0.223,0.17-0.46,0.322-0.672,0.503l-0.599,0.588c-0.432,0.365-0.722,0.85-1.087,1.275c-0.344,0.442-0.573,0.958-0.876,1.432
				l-2.728,4.264l0.086-4.846v-0.002l0.756,1.234c-0.464-0.236-0.931-0.45-1.405-0.619l-0.713-0.21l-0.716-0.13
				c-0.237-0.008-0.477-0.045-0.712-0.04c-0.233,0.023-0.474-0.004-0.703,0.051c-0.464,0.067-0.926,0.177-1.368,0.373
				c-0.451,0.169-0.884,0.418-1.303,0.705c-0.217,0.127-0.409,0.308-0.613,0.465c-0.209,0.152-0.392,0.348-0.586,0.527
				c-0.38,0.367-0.747,0.765-1.083,1.197c-0.351,0.418-0.66,0.88-0.98,1.333l0.158-0.535l-0.006,0.105l-0.055,1.161l-1.191-0.15
				l-0.46-0.058c-0.152-0.015-0.31-0.059-0.46-0.059c-0.287,0.043-0.604-0.007-0.881,0.085l-0.424,0.122
				c-0.15,0.021-0.273,0.114-0.406,0.187l-0.4,0.219c-0.13,0.084-0.24,0.207-0.364,0.307l-0.366,0.315l-0.314,0.395l-0.321,0.394
				c-0.097,0.143-0.18,0.299-0.271,0.448c-0.173,0.306-0.378,0.591-0.516,0.929l-0.459,0.983l-0.009-0.468
				c0.149,0.405,0.282,0.821,0.46,1.213c0.161,0.402,0.358,0.781,0.56,1.159c0.208,0.373,0.445,0.722,0.696,1.062
				c0.264,0.326,0.547,0.636,0.87,0.897c0.17,0.113,0.324,0.266,0.512,0.354c0.18,0.102,0.361,0.206,0.561,0.27
				c0.192,0.087,0.396,0.135,0.603,0.178c0.205,0.063,0.42,0.055,0.634,0.086c0.214,0.015,0.432-0.005,0.65-0.006l0.653-0.098
				C132.991,70.151,133.424,70.012,133.845,69.852z"/>
		</g>
	</g>
</g>
<style>

.slow{
	animation-name:moveRight;
	animation-duration:1700s;
	animation-iteration-count:infinite;
	transform-origin: 100% 100%;
}


.medium{
	animation-name:moveRight;
	animation-duration:1510s;
	animation-iteration-count:infinite;
	transform-origin: 100% 100%;
}

.slower{
	animation-name:moveRight;
	animation-duration:2000s;
	animation-iteration-count:infinite;
	transform-origin: 100% 100%;
}

@-webkit-keyframes moveRight {
  from {-webkit-transform: translateX(-100px);}
  to {-webkit-transform: translateX(1350px);}
}
</style>
</svg>
